# This file uses centimeters as units for non-parametric coordinates.

mtllib arcOBJ.mtl
g default
v 2.540749 0.000000 -0.353553
v 2.664210 0.379972 -0.353553
v 2.987433 0.614807 -0.353553
v 3.386959 0.614807 -0.353553
v 3.710182 0.379972 -0.353553
v 3.833642 0.000000 -0.353553
v 1.833642 0.000000 -0.353553
v 2.092148 0.795599 -0.353553
v 2.768925 1.287306 -0.353553
v 3.605467 1.287306 -0.353553
v 4.282244 0.795599 -0.353553
v 4.540749 0.000000 -0.353553
v 1.833642 0.000000 0.353553
v 2.092148 0.795599 0.353553
v 2.768925 1.287306 0.353553
v 3.605467 1.287306 0.353553
v 4.282243 0.795599 0.353553
v 4.540749 -0.000000 0.353553
v 2.540749 0.000000 0.353553
v 2.664210 0.379972 0.353553
v 2.987433 0.614807 0.353553
v 3.386959 0.614807 0.353553
v 3.710182 0.379972 0.353553
v 3.833642 -0.000000 0.353553
vt 0.802002 0.119919
vt 0.802002 0.310728
vt 0.632415 0.310728
vt 0.632415 0.119919
vt 0.802002 0.001992
vt 0.632415 0.001992
vt 0.949348 0.314525
vt 0.949348 0.505335
vt 0.779761 0.505335
vt 0.779761 0.314525
vt 0.949348 0.623262
vt 0.779761 0.623262
vt 0.507373 0.655038
vt 0.598503 0.655038
vt 0.598503 0.824624
vt 0.507373 0.824624
vt 0.451052 0.655038
vt 0.451052 0.824624
vt 0.196111 0.655038
vt 0.287240 0.655038
vt 0.287240 0.824624
vt 0.196111 0.824624
vt 0.343561 0.655038
vt 0.343561 0.824624
vt 0.219502 0.452045
vt 0.310631 0.481655
vt 0.310631 0.651241
vt 0.119822 0.589244
vt 0.163181 0.374526
vt 0.001895 0.426931
vt 0.163181 0.278707
vt 0.001895 0.226302
vt 0.219502 0.201188
vt 0.119822 0.063990
vt 0.310631 0.171578
vt 0.310631 0.001992
vt 0.508057 0.589243
vt 0.317248 0.651241
vt 0.317248 0.481655
vt 0.408377 0.452045
vt 0.625984 0.426931
vt 0.464698 0.374526
vt 0.625984 0.226302
vt 0.464698 0.278707
vt 0.508057 0.063990
vt 0.408377 0.201188
vt 0.317248 0.001992
vt 0.317248 0.171578
vt 0.773925 0.655038
vt 0.773925 0.855667
vt 0.604339 0.855667
vt 0.604339 0.655038
vt 0.445216 0.824624
vt 0.349397 0.824624
vt 0.349397 0.655038
vt 0.445216 0.655038
vt 0.020689 0.824625
vt 0.020689 0.655038
vt 0.190275 0.655038
vt 0.190275 0.824625
vt 0.001895 0.828421
vt 0.171481 0.828421
vt 0.171481 0.998008
vt 0.001895 0.998008
vn -0.000000 -0.000000 -1.000000
vn -0.000000 -0.000000 -1.000000
vn -0.000000 -0.000000 -1.000000
vn -0.000000 -0.000000 -1.000000
vn -0.000000 0.000000 -1.000000
vn -0.000000 0.000000 -1.000000
vn -0.000000 0.000000 -1.000000
vn -0.000000 0.000000 -1.000000
vn 0.000000 0.000000 -1.000000
vn 0.000000 0.000000 -1.000000
vn 0.000000 0.000000 -1.000000
vn 0.000000 0.000000 -1.000000
vn 0.000000 0.000000 -1.000000
vn 0.000000 0.000000 -1.000000
vn 0.000000 0.000000 -1.000000
vn 0.000000 0.000000 -1.000000
vn 0.000000 0.000000 -1.000000
vn 0.000000 0.000000 -1.000000
vn 0.000000 0.000000 -1.000000
vn 0.000000 0.000000 -1.000000
vn -0.951057 0.309017 -0.000000
vn -0.951057 0.309017 -0.000000
vn -0.951057 0.309017 -0.000000
vn -0.951057 0.309017 -0.000000
vn -0.587785 0.809017 0.000000
vn -0.587785 0.809017 0.000000
vn -0.587785 0.809017 0.000000
vn -0.587785 0.809017 0.000000
vn 0.000000 1.000000 0.000000
vn 0.000000 1.000000 0.000000
vn 0.000000 1.000000 0.000000
vn 0.000000 1.000000 0.000000
vn 0.587785 0.809017 0.000000
vn 0.587785 0.809017 0.000000
vn 0.587785 0.809017 0.000000
vn 0.587785 0.809017 0.000000
vn 0.951057 0.309017 0.000000
vn 0.951057 0.309017 0.000000
vn 0.951057 0.309017 0.000000
vn 0.951057 0.309017 0.000000
vn 0.000000 -0.000000 1.000000
vn 0.000000 -0.000000 1.000000
vn 0.000000 -0.000000 1.000000
vn 0.000000 -0.000000 1.000000
vn 0.000000 -0.000000 1.000000
vn 0.000000 -0.000000 1.000000
vn 0.000000 -0.000000 1.000000
vn 0.000000 -0.000000 1.000000
vn -0.000000 -0.000000 1.000000
vn -0.000000 -0.000000 1.000000
vn -0.000000 -0.000000 1.000000
vn -0.000000 -0.000000 1.000000
vn -0.000000 -0.000000 1.000000
vn -0.000000 -0.000000 1.000000
vn -0.000000 -0.000000 1.000000
vn -0.000000 -0.000000 1.000000
vn -0.000000 -0.000000 1.000000
vn -0.000000 -0.000000 1.000000
vn -0.000000 -0.000000 1.000000
vn -0.000000 -0.000000 1.000000
vn 0.951057 -0.309017 -0.000000
vn 0.951057 -0.309017 -0.000000
vn 0.951057 -0.309017 -0.000000
vn 0.951057 -0.309017 -0.000000
vn 0.587785 -0.809017 -0.000000
vn 0.587785 -0.809017 -0.000000
vn 0.587785 -0.809017 -0.000000
vn 0.587785 -0.809017 -0.000000
vn 0.000000 -1.000000 -0.000000
vn 0.000000 -1.000000 -0.000000
vn 0.000000 -1.000000 -0.000000
vn 0.000000 -1.000000 -0.000000
vn -0.587785 -0.809017 -0.000000
vn -0.587785 -0.809017 -0.000000
vn -0.587785 -0.809017 -0.000000
vn -0.587785 -0.809017 -0.000000
vn -0.951057 -0.309017 -0.000000
vn -0.951057 -0.309017 -0.000000
vn -0.951057 -0.309017 -0.000000
vn -0.951057 -0.309017 -0.000000
vn -0.000000 -1.000000 -0.000000
vn -0.000000 -1.000000 -0.000000
vn -0.000000 -1.000000 -0.000000
vn -0.000000 -1.000000 -0.000000
vn 0.000000 -1.000000 -0.000000
vn 0.000000 -1.000000 -0.000000
vn 0.000000 -1.000000 -0.000000
vn 0.000000 -1.000000 -0.000000
s off
g pTorus1
usemtl initialShadingGroup
f 2/25/1 1/26/2 7/27/3 8/28/4
f 3/29/5 2/25/6 8/28/7 9/30/8
f 4/31/9 3/29/10 9/30/11 10/32/12
f 5/33/13 4/31/14 10/32/15 11/34/16
f 6/35/17 5/33/18 11/34/19 12/36/20
f 8/1/21 7/2/22 13/3/23 14/4/24
f 9/5/25 8/1/26 14/4/27 15/6/28
f 10/49/29 9/50/30 15/51/31 16/52/32
f 11/8/33 10/11/34 16/12/35 17/9/36
f 12/7/37 11/8/38 17/9/39 18/10/40
f 14/37/41 13/38/42 19/39/43 20/40/44
f 15/41/45 14/37/46 20/40/47 21/42/48
f 16/43/49 15/41/50 21/42/51 22/44/52
f 17/45/53 16/43/54 22/44/55 23/46/56
f 18/47/57 17/45/58 23/46/59 24/48/60
f 20/13/61 19/14/62 1/15/63 2/16/64
f 21/17/65 20/13/66 2/16/67 3/18/68
f 22/53/69 21/54/70 3/55/71 4/56/72
f 23/20/73 22/23/74 4/24/75 5/21/76
f 24/19/77 23/20/78 5/21/79 6/22/80
f 7/57/81 1/58/82 19/59/83 13/60/84
f 12/61/85 18/62/86 24/63/87 6/64/88
